<svg width="165" height="40" viewBox="0 0 165 40" fill="none" xmlns="http://www.w3.org/2000/svg">
<g clip-path="url(#clip0_228_10509)">
<path d="M3.56848 13H10.648V40H3.56848V13Z" fill="#32D583"/>
<path d="M12.6481 16H19.7276V40H12.6481V16Z" fill="#32D583"/>
<path d="M21.7275 12H28.8071V40H21.7275V12Z" fill="#32D583"/>
<path d="M30.8071 16H37.8867V40H30.8071V16Z" fill="#F97066"/>
<path d="M39.8866 8H46.9661V40H39.8866V8Z" fill="#32D583"/>
<path d="M48.9662 3H56.0457V40H48.9662V3Z" fill="#32D583"/>
<path d="M58.0457 7H65.1252V40H58.0457V7Z" fill="#32D583"/>
<path d="M67.1252 8H74.2048V40H67.1252V8Z" fill="#F97066"/>
<path d="M76.2047 5H83.2842V40H76.2047V5Z" fill="#32D583"/>
<path d="M85.2843 3H92.3638V40H85.2843V3Z" fill="#32D583"/>
<path d="M94.3638 4H101.443V40H94.3638V4Z" fill="#32D583"/>
<path d="M103.443 7H110.523V40H103.443V7Z" fill="#F97066"/>
<path d="M112.523 8H119.602V40H112.523V8Z" fill="#F97066"/>
<path d="M121.602 5H128.682V40H121.602V5Z" fill="#F97066"/>
<path d="M130.682 3H137.761V40H130.682V3Z" fill="#32D583"/>
<path d="M139.761 11H146.841V40H139.761V11Z" fill="#32D583"/>
<path d="M148.841 3H155.92V40H148.841V3Z" fill="#32D583"/>
<path d="M157.921 0H165V40H157.921V0Z" fill="#32D583"/>
</g>
<defs>
<clipPath id="clip0_228_10509">
<rect width="165" height="40" fill="white"/>
</clipPath>
</defs>
</svg>
