<svg width="20" height="18" viewBox="0 0 20 18" fill="none" xmlns="http://www.w3.org/2000/svg">
<path d="M19.1666 2.33333V7.33333M19.1666 7.33333H14.1666M19.1666 7.33333L15.2999 3.7C14.4043 2.80392 13.2963 2.14934 12.0792 1.79731C10.8622 1.44528 9.57584 1.40729 8.34016 1.68688C7.10447 1.96647 5.95975 2.55452 5.01281 3.39618C4.06586 4.23783 3.34756 5.30565 2.92492 6.5M0.833252 15.6667V10.6667M0.833252 10.6667H5.83325M0.833252 10.6667L4.69992 14.3C5.59554 15.1961 6.70356 15.8507 7.92059 16.2027C9.13762 16.5547 10.424 16.5927 11.6597 16.3131C12.8954 16.0335 14.0401 15.4455 14.987 14.6038C15.934 13.7622 16.6523 12.6943 17.0749 11.5" stroke="#667085" stroke-width="2" stroke-linecap="round" stroke-linejoin="round"/>
</svg>
